<svg width="1280" height="832" viewBox="0 0 1280 832" fill="none" xmlns="http://www.w3.org/2000/svg">
<path d="M518.318 259.189C472.806 232.544 524.699 190.269 556.334 172.462C656.627 108.822 638.332 198.823 631.806 214.124C625.388 242.126 575.207 292.496 518.318 259.189Z" fill="#8F8744" fill-opacity="0.54"/>
<path d="M645.253 693.356C668.053 607.756 784.753 496.022 840.253 450.856C889.753 407.065 931.753 407.856 962.253 434.856C992.753 461.856 1027.25 485.856 1034.25 709.356C1041.25 932.856 871.753 1029.36 790.753 1000.36C709.753 971.356 616.753 800.356 645.253 693.356Z" fill="#5E30A9" fill-opacity="0.5"/>
<path d="M718 473C539 648.5 748.5 772.667 789.5 884.5L594 886C484.5 888.5 260.4 892 240 886C214.5 878.5 336.5 609.5 417 423.5C497.5 237.5 663.5 351.5 662 196C660.5 40.5 644.5 65.5 644.5 34.5C644.5 -63.2816 905.833 -165.333 964.5 -232L1169 -137C1098.5 -99 1023.5 -113 874 4.5C724.5 122 778.18 187.261 794.5 241.5C811.5 298 851.5 369.5 718 473Z" fill="#177E94" fill-opacity="0.59"/>
<path d="M1175.97 93.6575C1108.02 44.6438 967.971 19.6574 910.471 77.1574C836.534 151.094 858.471 289.658 1044.97 423.158C1194.17 529.958 959.971 668.657 1175.97 884.657L1589.47 840.657L1632.47 678.657L1649.97 356.157L1407.97 242.658C1360.14 211.658 1236.97 137.657 1175.97 93.6575Z" fill="#3E9420" fill-opacity="0.49"/>
<path d="M852.214 207.524C799.55 210.306 819.633 146.457 836.258 114.185C885.008 5.87011 919.236 91.096 922.202 107.464C932.246 134.38 918.045 204.047 852.214 207.524Z" fill="#8F8744" fill-opacity="0.54"/>
<path d="M397 319C296.5 505.5 197 748 179.5 827.5L223 931.999H-31C-29.1667 584.665 -24.5 -117 -20.5 -145C-15.5 -180 302.074 -94.1936 496.5 -14C665 55.5001 480.795 163.5 397 319Z" fill="#263D8D" fill-opacity="0.55"/>
</svg>
