<svg width="1201" height="832" viewBox="0 0 1201 832" fill="none" xmlns="http://www.w3.org/2000/svg">
<path d="M294.5 502.929C255.5 492.858 186.5 473.317 134.5 474.817C82.5 476.317 26 461.843 26 461.843V850H224.576L1340 815.942V578C1340 578 1269 552 1226.5 532.5C1184 513 1083.11 514.104 1048.5 532.5C995.5 551 900.5 564.473 870.5 550.5C834 533.5 764 513 708.5 513C653 513 518.177 532.929 453 543C387.823 553.071 333.5 513 294.5 502.929Z" fill="#487998" fill-opacity="0.35"/>
<path d="M243.092 551.838C185.07 547.255 119.045 518.233 119.045 518.233L0 498.375V-50H198.576L1314 -1.88354V422C1314 422 1281.99 457.132 1231.97 456.369C1181.95 455.605 1032.39 356.317 1032.39 356.317C1032.39 356.317 916.849 286.815 871.832 308.964C826.815 331.113 768.292 457.896 691.763 480.045C615.234 502.194 526.7 418.181 466.177 440.33C405.654 462.479 301.115 556.42 243.092 551.838Z" fill="#9379F7" fill-opacity="0.28"/>
<path d="M519 391C338.2 405.8 139 535.5 113.5 615.5C113.5 615.5 47 604 36.5 615.5C36.5001 641.5 76.675 648 89.5 661.5C105.175 678 156 739 164.5 721C173 703 124.5 663.5 198.5 627C374 527.5 498.5 596 505.5 655C515.865 742.367 667.5 1079 845 762.5C1022.5 446 745 372.5 519 391Z" fill="#4A7A96"/>
<path d="M461.287 65C456.286 22 518.287 -32.5 518.287 -32.5L1375.29 -64L1388.29 323.5C1388.29 323.5 1333.79 412 1253.29 400.5C1172.79 389 1150.29 297.5 1061.79 290C973.288 282.5 820.287 370.5 753.787 297.5C687.287 224.5 716.287 180.5 651.287 132.5C586.287 84.5 466.288 108 461.287 65Z" fill="#A9D1A2" fill-opacity="0.61"/>
</svg>
