<svg width="1280" height="832" viewBox="0 0 1280 832" fill="none" xmlns="http://www.w3.org/2000/svg">
<path d="M1453.5 405.653C1272.7 420.453 1073.5 550.153 1048 630.153C1048 630.153 981.5 618.653 971 630.153C971 656.153 1011.17 662.653 1024 676.153C1039.68 692.653 1090.5 753.653 1099 735.653C1107.5 717.653 1059 678.153 1133 641.653C1308.5 542.153 1433 610.653 1440 669.653C1450.37 757.02 1602 1093.65 1779.5 777.153C1957 460.653 1679.5 387.153 1453.5 405.653Z" fill="url(#paint0_linear_34_59)"/>
<path d="M480.601 570.056L484.508 565.761C491.049 558.572 501.951 557.471 509.789 563.218L569.802 607.221C590.272 622.231 599.509 634.318 622.221 645.656C630.469 649.774 637.016 652.579 642.185 654.479C649.672 657.231 658.607 668.577 657.373 676.459L653.905 698.607C653.187 703.191 649.421 706.022 644.986 704.659C639.483 702.968 630.295 699.668 615.235 693.234C586.589 680.996 547.279 651.467 547.279 651.467L482.486 597.434C474.181 590.507 473.323 578.056 480.601 570.056Z" fill="#D8C57B"/>
<path d="M510.744 583.759L513.511 585.787C514.599 586.585 515.899 587.043 517.246 587.103L518.301 587.15C520.719 587.258 522.773 588.953 523.338 591.306V591.306C523.941 593.813 526.223 595.55 528.799 595.464L529.117 595.454C531.602 595.371 533.865 596.876 534.749 599.2L535.261 600.544C536.242 603.12 538.643 604.88 541.395 605.041L542.835 605.125C545.391 605.275 547.661 606.807 548.755 609.121L552.056 616.102C552.553 617.154 553.306 618.066 554.245 618.754L572.206 631.924C572.716 632.298 573.275 632.602 573.867 632.826L586.739 637.696C588.842 638.492 589.997 640.755 589.407 642.926V642.926C588.933 644.669 589.582 646.524 591.039 647.593L591.848 648.186C592.83 648.906 594.141 648.99 595.207 648.4V648.4C597.26 647.263 599.787 648.713 599.841 651.059L599.884 652.943C599.901 653.671 600.255 654.35 600.842 654.781L601.686 655.4C602.264 655.824 603.077 655.699 603.501 655.12V655.12C604.145 654.242 605.518 654.499 605.802 655.55L606.234 657.154C606.53 658.251 607.645 658.913 608.749 658.647L611.327 658.028C613.284 657.557 615.2 658.938 615.373 660.943L615.394 661.186C615.462 661.976 615.869 662.699 616.508 663.168L617.114 663.612C618.005 664.265 619.257 664.073 619.91 663.182L620.332 662.607C620.752 662.034 621.557 661.91 622.13 662.33L622.184 662.369C622.508 662.607 622.687 662.996 622.658 663.397L622.46 666.055C622.43 666.458 622.948 666.649 623.187 666.323V666.323C623.224 666.272 623.272 666.231 623.328 666.203L624.614 665.542C626.13 664.763 627.985 665.163 629.046 666.497L629.588 667.179C630.284 668.054 631.483 668.347 632.504 667.893L632.629 667.837C633.674 667.371 634.903 667.748 635.509 668.719L636.604 670.475C636.938 671.011 637.709 671.04 638.082 670.53L638.644 669.764C638.972 669.317 639.68 669.545 639.686 670.099V670.099C639.69 670.484 640.062 670.757 640.43 670.645L644.479 669.416" stroke="#998E6C"/>
<path d="M571.389 633.805C571.389 633.805 514.535 592.118 501.309 580.56C498.057 584.996 494.509 589.835 487.09 588.115C479.967 585.992 477.467 586.019 476.177 586.933C476.714 590.427 477.988 591.513 479.456 594.298C492.79 606.554 514.779 623.917 514.779 623.917C514.779 623.917 552.548 657.811 582.144 675.791C601.12 686.732 625.31 697.562 632.412 700.249C635.05 701.247 638.011 702.652 640.86 704.127C646.786 707.195 654.249 703.547 654.946 696.911L657.059 676.781L621.873 668.961L604.964 659.043L571.389 633.805Z" fill="#D8C57B" fill-opacity="0.61" style="mix-blend-mode:multiply"/>
<path d="M516.765 576.393L524.865 578.863C525.968 579.2 526.561 580.396 526.161 581.478V581.478C525.85 582.318 526.134 583.263 526.856 583.792L529.842 585.982C530.527 586.483 531.298 586.855 532.117 587.078L535.514 588.002C536.781 588.346 537.727 589.405 537.926 590.702V590.702C538.06 591.573 538.535 592.355 539.246 592.876L543.768 596.193C544.773 596.93 546.096 597.071 547.235 596.564L547.528 596.434C548.485 596.008 549.598 596.127 550.443 596.747V596.747C551.335 597.401 551.781 598.503 551.595 599.593L551.429 600.569C551.14 602.258 551.831 603.964 553.212 604.977L555.779 606.859C556.059 607.065 556.355 607.249 556.662 607.411L564.072 611.304C564.786 611.68 565.56 611.929 566.36 612.04L567.778 612.238C570.608 612.633 572.914 614.71 573.603 617.484L573.961 618.925C574.209 619.925 574.8 620.806 575.631 621.416L577.168 622.542C578.281 623.358 579.846 623.118 580.662 622.004L581.401 620.996C581.81 620.439 582.592 620.319 583.148 620.727V620.727C583.705 621.135 583.826 621.918 583.417 622.474L582.974 623.079C582.484 623.747 582.629 624.686 583.297 625.176L583.838 625.573C584.207 625.844 584.287 626.362 584.017 626.731V626.731C583.785 627.046 583.806 627.481 584.068 627.773L589.498 633.834C589.887 634.267 590.41 634.556 590.984 634.654L593.305 635.05C593.896 635.151 594.412 634.643 594.321 634.051V634.051C594.175 633.1 595.443 632.64 595.941 633.464L596.827 634.931C596.944 635.125 597.005 635.348 597.002 635.575L596.965 638.55C596.957 639.164 597.247 639.745 597.742 640.108L598.308 640.522C599.043 641.062 600.09 640.747 600.407 639.892V639.892C600.723 639.036 601.771 638.722 602.506 639.261L603.359 639.886C603.687 640.127 603.941 640.455 604.092 640.832L604.417 641.648C604.936 642.948 606.683 643.171 607.511 642.041V642.041C608.093 641.247 609.209 641.075 610.003 641.658L610.156 641.77C610.675 642.151 610.976 642.761 610.962 643.404L610.937 644.539C610.888 646.747 612.578 648.607 614.781 648.771L615.093 648.794C615.4 648.817 615.703 648.871 615.999 648.956L623.537 651.121C624.676 651.448 625.69 652.111 626.448 653.023V653.023C627.394 654.162 628.735 654.904 630.203 655.101L640.338 656.461" stroke="#928A6F"/>
<path d="M501.389 569.459C501.841 574.254 492.752 578.42 489.509 580.588L490.476 577.578C490.476 577.578 497.223 572.604 497.411 571.502C497.76 569.456 494.068 571.254 492.115 571.959C487.892 573.486 484.117 576.905 485.315 581.234C486.421 585.225 488.684 586.564 492.251 584.459C495.53 582.523 499.185 578.383 499.185 578.383L501.605 580.157C497.654 584.7 496.003 587.458 492.09 588.061C487.198 588.814 481.795 588.572 481.418 581.476C481.116 575.799 487.599 570.508 490.879 568.573C494.194 566.87 500.937 564.664 501.389 569.459Z" fill="#D8C57B" fill-opacity="0.61" style="mix-blend-mode:multiply"/>
<path d="M501.9 579.754C508.813 571.573 508.007 563.73 505.085 561.01C504.605 560.563 503.968 560.35 503.328 560.205C500.685 559.606 500.046 559.592 495.129 559.797C494.505 559.823 493.886 559.922 493.306 560.153C487.239 562.562 475.854 571.343 475.854 582.189C475.854 584.876 478.159 586.815 480.797 587.328C485.328 588.207 488.285 588.828 492.192 588.383C492.857 588.307 493.502 588.11 494.124 587.864C495.228 587.428 495.813 586.958 501.9 579.754Z" fill="#F7D02E" fill-opacity="0.4" style="mix-blend-mode:multiply"/>
<path d="M707.941 692.194L676.182 738.952C666.455 753.272 647.113 757.155 633.989 745.867C628.167 740.859 622.862 735.857 619.208 731.766C610.351 721.849 601.391 715.069 588.707 705.202C588.707 705.202 568.971 689.654 560.539 684.277L536.087 668.686C536.087 668.686 521.795 654.83 511.866 650.871C501.937 646.913 490.243 644.793 482.154 642.6C474.064 640.407 444.677 619.535 415.578 601.931C379.574 572.096 373.532 547.698 370.435 530.792C370.233 529.692 369.587 528.725 368.644 528.124L346.093 513.745C345.161 513.151 344.888 511.915 345.481 510.984L361.072 486.531C361.666 485.6 362.903 485.326 363.834 485.92L386.429 500.327C387.346 500.912 388.477 501.095 389.533 500.834C416.155 494.264 422.584 489.79 476.867 505.807L540.106 546.129C559.721 553.496 603.119 573.972 619.787 596.934C636.456 619.896 664.676 630.695 676.703 633.223L698.674 647.232C713.882 656.929 718.075 677.273 707.941 692.194Z" fill="url(#paint1_linear_34_59)" fill-opacity="0.5" style="mix-blend-mode:multiply"/>
<path d="M463.64 632.575C488.64 601.55 527.254 552.956 539.147 546.703C539.147 546.703 507.76 524.318 476.867 505.807C443.935 496.076 425.874 494.641 423.803 495.1C406.738 494.893 387.865 501.242 387.865 501.242L364.637 486.432C363.256 485.551 361.427 485.938 360.532 487.31C356.283 493.824 345.147 511.109 345.518 512.786C345.977 514.857 369.549 528.108 369.549 528.108C372.837 539.692 376.008 552.388 377.579 554.575C411.351 612.281 438.35 609.927 463.64 632.575Z" fill="url(#paint2_linear_34_59)" fill-opacity="0.5" style="mix-blend-mode:multiply"/>
<path d="M620.783 598.162C597.891 640.018 563.033 668.276 548.734 676.751L538.616 670.299C570.205 646.797 599.916 604.228 610.555 586.303L620.783 598.162Z" fill="url(#paint3_linear_34_59)" fill-opacity="0.5" style="mix-blend-mode:multiply"/>
<path d="M547.287 76C542.286 33 604.287 -21.5 604.287 -21.5L1461.29 -53L1474.29 334.5C1474.29 334.5 1419.79 423 1339.29 411.5C1258.79 400 1236.29 308.5 1147.79 301C1059.29 293.5 906.287 381.5 839.787 308.5C773.287 235.5 802.287 191.5 737.287 143.5C672.287 95.5 552.288 119 547.287 76Z" fill="#A9D1A2" fill-opacity="0.61"/>
<path d="M84 581.004C170.563 592.029 148.739 547.512 236 548.004C298.054 548.354 364.031 570.285 426 593C493.147 617.613 556.284 643.211 623.5 645C735.692 647.987 798.77 581.721 911 581.004C1028.06 580.257 1090.47 622.397 1207.5 625.004C1321.48 627.544 1384.2 589.09 1498 596.004C1568.88 600.31 1677.5 625.004 1677.5 625.004V997.004H-33V548.004C-33 548.004 36.9064 575.006 84 581.004Z" fill="url(#paint4_linear_34_59)" fill-opacity="0.65"/>
<defs>
<linearGradient id="paint0_linear_34_59" x1="892.5" y1="757.5" x2="1373" y2="493" gradientUnits="userSpaceOnUse">
<stop stop-color="#4A7A96"/>
<stop offset="1" stop-color="#B6B547" stop-opacity="0.78"/>
</linearGradient>
<linearGradient id="paint1_linear_34_59" x1="491.344" y1="657.948" x2="758.538" y2="477.546" gradientUnits="userSpaceOnUse">
<stop stop-color="#3799D2"/>
<stop offset="1" stop-color="#DBD1C3"/>
</linearGradient>
<linearGradient id="paint2_linear_34_59" x1="401.421" y1="592.904" x2="631.676" y2="524.75" gradientUnits="userSpaceOnUse">
<stop stop-color="#3799D2"/>
<stop offset="1" stop-color="#DBD1C3"/>
</linearGradient>
<linearGradient id="paint3_linear_34_59" x1="551.669" y1="678.622" x2="608.459" y2="700.433" gradientUnits="userSpaceOnUse">
<stop stop-color="#3799D2"/>
<stop offset="1" stop-color="#DBD1C3"/>
</linearGradient>
<linearGradient id="paint4_linear_34_59" x1="1009.5" y1="400" x2="801" y2="803" gradientUnits="userSpaceOnUse">
<stop stop-color="#D1DD50"/>
<stop offset="1" stop-color="#2C24DD"/>
</linearGradient>
</defs>
</svg>
