<svg width="1280" height="832" viewBox="0 0 1280 832" fill="none" xmlns="http://www.w3.org/2000/svg">
<path d="M497.962 447.485L404.035 540.159L480.055 583.443L574.743 579.673L497.962 447.485Z" fill="#D8C560"/>
<path d="M493.909 453.656L423.132 551.364L408.344 542.543L493.909 453.656Z" fill="#D8C560" style="mix-blend-mode:multiply"/>
<path d="M483.89 560.643L497.333 448.936L487.376 560.948L485.795 561.814L483.89 560.643Z" fill="#D8C560" style="mix-blend-mode:multiply"/>
<path d="M497.557 447.91L484.772 558.557L574.238 579.254L497.557 447.91Z" fill="#D8C560" style="mix-blend-mode:multiply"/>
<path d="M387.447 525.087L253.629 457.074L270.488 555.3L375.413 624.864L635.625 693.013L747.863 589.205L569.869 574.285L387.447 525.087Z" fill="#E1CF71"/>
<path d="M490.164 552.631L451.071 644.523L634.052 692.215L746.532 588.598L567.873 573.364L490.164 552.631Z" fill="#E1CF71" style="mix-blend-mode:multiply"/>
<path d="M1453.5 405.653C1272.7 420.453 1073.5 550.153 1048 630.153C1048 630.153 981.5 618.653 971 630.153C971 656.153 1011.17 662.653 1024 676.153C1039.68 692.653 1090.5 753.653 1099 735.653C1107.5 717.653 1059 678.153 1133 641.653C1308.5 542.153 1433 610.653 1440 669.653C1450.37 757.02 1602 1093.65 1779.5 777.153C1957 460.653 1679.5 387.153 1453.5 405.653Z" fill="url(#paint0_linear_35_60)"/>
<path d="M547.287 76C542.286 33 604.287 -21.5 604.287 -21.5L1461.29 -53L1474.29 334.5C1474.29 334.5 1419.79 423 1339.29 411.5C1258.79 400 1236.29 308.5 1147.79 301C1059.29 293.5 906.287 381.5 839.787 308.5C773.287 235.5 802.287 191.5 737.287 143.5C672.287 95.5 552.288 119 547.287 76Z" fill="#A9D1A2" fill-opacity="0.61"/>
<path d="M84 581.004C170.563 592.029 148.739 547.512 236 548.004C298.054 548.354 364.031 570.285 426 593C493.147 617.613 556.284 643.211 623.5 645C735.692 647.987 798.77 581.721 911 581.004C1028.06 580.257 1090.47 622.397 1207.5 625.004C1321.48 627.544 1384.2 589.09 1498 596.004C1568.88 600.31 1677.5 625.004 1677.5 625.004V997.004H-33V548.004C-33 548.004 36.9064 575.006 84 581.004Z" fill="url(#paint1_linear_35_60)" fill-opacity="0.65"/>
<defs>
<linearGradient id="paint0_linear_35_60" x1="892.5" y1="757.5" x2="1373" y2="493" gradientUnits="userSpaceOnUse">
<stop stop-color="#4A7A96"/>
<stop offset="1" stop-color="#B6B547" stop-opacity="0.78"/>
</linearGradient>
<linearGradient id="paint1_linear_35_60" x1="1009.5" y1="400" x2="801" y2="803" gradientUnits="userSpaceOnUse">
<stop stop-color="#D1DD50"/>
<stop offset="1" stop-color="#2C24DD"/>
</linearGradient>
</defs>
</svg>
