<svg width="24" height="24" viewBox="0 0 24 24" fill="none" xmlns="http://www.w3.org/2000/svg">
<path d="M11.9 5.95C13.3083 5.95 14.45 4.80833 14.45 3.4C14.45 1.99167 13.3083 0.849998 11.9 0.849998C10.4917 0.849998 9.35001 1.99167 9.35001 3.4C9.35001 4.80833 10.4917 5.95 11.9 5.95Z" fill="black" fill-opacity="0.66"/>
<path d="M11.9 14.45C13.3083 14.45 14.45 13.3083 14.45 11.9C14.45 10.4917 13.3083 9.35 11.9 9.35C10.4917 9.35 9.35001 10.4917 9.35001 11.9C9.35001 13.3083 10.4917 14.45 11.9 14.45Z" fill="black" fill-opacity="0.66"/>
<path d="M11.9 22.95C13.3083 22.95 14.45 21.8083 14.45 20.4C14.45 18.9917 13.3083 17.85 11.9 17.85C10.4917 17.85 9.35001 18.9917 9.35001 20.4C9.35001 21.8083 10.4917 22.95 11.9 22.95Z" fill="black" fill-opacity="0.66"/>
</svg>
